<?xml version="1.0" encoding="utf-8"?>
<!-- Generator: Adobe Illustrator 19.0.0, SVG Export Plug-In . SVG Version: 6.00 Build 0)  -->
<svg version="1.1" id="Layer_1" xmlns="http://www.w3.org/2000/svg" xmlns:xlink="http://www.w3.org/1999/xlink" x="0px" y="0px"
	 viewBox="590 -500 1792 1792" style="enable-background:new 590 -500 1792 1792;" xml:space="preserve">
<path d="M1117.5,1131.2l315.9-191.8V625.7l-315.9,163.8V1131.2z M1064.8,677.7l332.3-172.8l-332.3-172.8L732.5,504.9L1064.8,677.7z
	 M1959.8,1131.2l315.9-191.8V625.7l-315.9,163.8V1131.2z M1907.2,677.7l332.3-172.8l-332.3-172.8l-332.3,172.8L1907.2,677.7z
	 M1538.6,385l315.9-164.8V-45.5l-315.9,163.8V385z M1486,6.4l362.8-188.8L1486-371.1l-362.8,188.8L1486,6.4z M2381,523.9v415.5
	c0,24-5.2,46.3-15.6,66.9c-10.4,20.6-24.7,36.3-42.8,46.9L1954.1,1277c-13.7,9.3-29.3,14-46.9,14s-33.2-4.7-46.9-14l-368.5-223.8
	c-2.7-1.3-4.7-2.7-5.8-4c-1.1,1.3-3,2.7-5.8,4L1111.7,1277c-13.7,9.3-29.3,14-46.9,14c-17.5,0-33.2-4.7-46.9-14l-368.5-223.8
	c-18.1-10.7-32.4-26.3-42.8-46.9c-10.4-20.6-15.6-43-15.6-66.9V523.9c0-25.3,5.9-48.6,17.7-69.9c11.8-21.3,27.3-37.3,46.5-47.9
	l357-185.8v-399.6c0-25.3,5.9-48.6,17.7-69.9c11.8-21.3,27.3-37.3,46.5-47.9L1444.9-489c12.6-6.7,26.3-10,41.1-10s28.5,3.3,41.1,10
	l368.5,191.8c19.2,10.7,34.7,26.6,46.5,47.9c11.8,21.3,17.7,44.6,17.7,69.9v399.6l357,185.8c19.7,10.7,35.4,26.6,46.9,47.9
	C2375.2,475.2,2381,498.6,2381,523.9z"/>
</svg>
