<svg xmlns="http://www.w3.org/2000/svg" viewBox="0 0 500 697"><defs><style>.cls-1{isolation:isolate;}.cls-2{fill:#b5b5bc;}.cls-3{fill:#f8f8ff;}.cls-4{fill:#ffcb4e;}.cls-5{fill:#ff8c19;opacity:0.3;}.cls-5,.cls-7{mix-blend-mode:darken;}.cls-6,.cls-7{fill:#696969;}.cls-8{fill:#fff;}</style></defs><title>befund</title><g class="cls-1"><g id="OBJECTS"><path class="cls-2" d="M95.37,132.76a9.62,9.62,0,0,0-9.61,9.62v199A9.61,9.61,0,0,0,95.37,351H418.82a9.62,9.62,0,0,0,9.62-9.61v-199a9.62,9.62,0,0,0-9.62-9.62ZM405.79,329.48h-298V153.65h298Z"/><path class="cls-2" d="M425,355.15H89.2a8.89,8.89,0,0,0-6.1,2.5L49.27,389.46c-7,6.58-3,19.61,6.09,19.61H458.85c9,0,13.08-13,6.08-19.61l-33.84-31.81A8.85,8.85,0,0,0,425,355.15Z"/><path class="cls-3" d="M405.79,329.48V153.65h-298V329.48Z"/><path class="cls-2" d="M279.19,247.5h-7.34V223.23a19.21,19.21,0,0,0-38.42,0V247.5h-7.34V223.23a26.55,26.55,0,0,1,53.1,0Z"/><rect class="cls-4" x="214.86" y="235.98" width="75.56" height="51.09" rx="2.85"/><path class="cls-5" d="M290.42,284.23V256.41c-23,19.48-56.21,26.79-75,29.48a2.83,2.83,0,0,0,2.3,1.18h69.87A2.84,2.84,0,0,0,290.42,284.23Z"/><path class="cls-6" d="M258.89,253.83a6.25,6.25,0,1,0-10,5l-2,14.12h11.4l-2-14.12A6.25,6.25,0,0,0,258.89,253.83Z"/><path class="cls-5" d="M217.24,241.37v9.77C217.5,247,219.5,238,232,238H220.65A3.42,3.42,0,0,0,217.24,241.37Z"/><path class="cls-7" d="M246.94,273s8.46-2.4,9.42-14.12l2,14.12Z"/><rect class="cls-4" x="266.72" y="394.8" width="113.87" height="197.31"/><path class="cls-6" d="M369.2,377.39H276.85a16,16,0,0,0-16,16V580.91a16,16,0,0,0,16,16H369.2a16,16,0,0,0,16-16V393.38A16,16,0,0,0,369.2,377.39Zm-69,9.71h45.59c1.15,0,2.08,1.72,2.08,3.84s-.93,3.86-2.08,3.86H300.24c-1.16,0-2.08-1.73-2.08-3.86S299.08,387.1,300.24,387.1Zm73,194.17H272.85V404.37H373.2Z"/><path class="cls-8" d="M332.77,533.21h-3.26v2.35h-4.34V479.48h.18a1.22,1.22,0,1,0,0-2.44h-.18v-.12a1.62,1.62,0,0,0-.1-3.06l0-.08h.31a1.22,1.22,0,0,0,.37-2.38,5.86,5.86,0,0,0,1.83-1.6l.16,0a.95.95,0,0,0,1.89-.07v-.49c7.88-2.67,13.44-9.11,13.44-16.62,0-9.91-9.66-17.94-21.58-17.94s-21.57,8-21.57,17.94c0,7.51,5.55,13.95,13.43,16.62v.49a1,1,0,0,0,1.9.07l.16,0a5.94,5.94,0,0,0,1.82,1.6,1.22,1.22,0,0,0,.37,2.38h.31l0,.11a1.62,1.62,0,0,0-.09,3V477h-.19a1.22,1.22,0,1,0,0,2.44h.19v74.13a3.71,3.71,0,0,0,7.41,0v-3.17h4.34V553h8.64v-4.53h-3.93v-3.09h3.93v-4.53h-3.93v-3.1h3.93v-4.52h-5.38Zm-27.44-80.63c0-6.79,7.22-12.29,16.13-12.29s16.14,5.5,16.14,12.29c0,4.53-3.21,8.48-8,10.61v-.63a1,1,0,1,0-1.9,0v.5a5.8,5.8,0,0,0-4.84-2.58h-2.79a5.83,5.83,0,0,0-4.85,2.58v-.5a1,1,0,1,0-1.9,0v.63C308.54,461.06,305.33,457.11,305.33,452.58Z"/></g></g></svg>