<svg id="OBJECTS" xmlns="http://www.w3.org/2000/svg" viewBox="0 0 500 697"><defs><style>.cls-1{fill:#696969;}.cls-2{fill:#fff;}.cls-3{fill:#d9d9dd;}.cls-4{fill:#12c108;}</style></defs><title>befund</title><path class="cls-1" d="M393.79,653.31l-281.45-48a14.28,14.28,0,0,1-11.83-15.36l35.72-401.3a14.3,14.3,0,0,1,14.36-13L436.1,178a14.3,14.3,0,0,1,14.12,15.57L410.44,640.48A14.3,14.3,0,0,1,393.79,653.31Z"/><polygon class="cls-2" points="392.69 635.97 116.23 588.96 149.96 210.12 430.36 212.68 392.69 635.97"/><path class="cls-3" d="M369.51,415.51,177.43,401.58a4.78,4.78,0,0,1-4.48-5.25l.69-6.87a4.77,4.77,0,0,1,5-4.3l192,12.78a4.79,4.79,0,0,1,4.52,5.16l-.65,8A4.78,4.78,0,0,1,369.51,415.51Z"/><path class="cls-3" d="M320.61,446.46l-146.8-12.62a4.78,4.78,0,0,1-4.48-5.25l.68-6.87a4.79,4.79,0,0,1,5-4.3L321.78,428.9a4.79,4.79,0,0,1,4.52,5.16l-.65,8A4.78,4.78,0,0,1,320.61,446.46Z"/><path class="cls-3" d="M349.41,483.54,170.26,467.19a4.78,4.78,0,0,1-4.48-5.25l.68-6.87a4.79,4.79,0,0,1,5-4.29L350.58,466a4.78,4.78,0,0,1,4.52,5.15l-.65,8A4.78,4.78,0,0,1,349.41,483.54Z"/><path class="cls-3" d="M333.59,517.57,167,499.8a4.78,4.78,0,0,1-4.48-5.25l.69-6.86a4.77,4.77,0,0,1,5-4.3L334.75,500a4.78,4.78,0,0,1,4.52,5.16l-.64,8A4.78,4.78,0,0,1,333.59,517.57Z"/><circle class="cls-4" cx="278.38" cy="250.26" r="5.77" transform="matrix(0.17, -0.99, 0.99, 0.17, -14.42, 483.49)"/><path class="cls-4" d="M268.83,367.85h0a1.34,1.34,0,0,1-1.87-.17h0a1.32,1.32,0,0,1-.32-1l9-111.44a1.34,1.34,0,0,1,1.46-1.24l1.91.17a1.36,1.36,0,0,1,1.23,1.48l-10.9,111.27A1.34,1.34,0,0,1,268.83,367.85Z"/><path class="cls-4" d="M295.86,266.34c-.07-.8-5.36-5-7.22-6a3.66,3.66,0,0,0-3.74.39s-1.31-.41-11.43-.69c-10.74-.3-18.87,14.4-7.3,21.38s13.88,9.26,13.51,13.44-5.54,6.19-10.78,7.88c-8.89,2.87-12.18,13-3,17.94s10.62,5.3,10.59,8.05-3.65,2.14-10.12,6.2-3.72,9.17-.3,11.5,6.64,4.37,6.31,8.11-6,4.32-8.13,4.13-1.9.95.05,1.09c6.34.49,9.75-1.95,10.18-5.25a7.05,7.05,0,0,0-2.1-6.5c-2.4-2.39-6.38-4.05-5.89-8s9.17-4,12.25-7.25c3.77-4,2.1-8-1.71-10.81s-10.53-6.2-10.44-9.89c.13-5.1,12.38-7.9,16.29-10.62,6.38-4.43,6.2-13.37-4-19.23s-11.5-7.68-11.32-11.29,4.27-6.36,9.14-6.51,5,.74,5,.74a6,6,0,0,0,1,1.61,28.1,28.1,0,0,0,4.47,1.92,37.14,37.14,0,0,0,6.82.76C294.79,269.36,295.93,267.15,295.86,266.34Zm-6.57-2a3.34,3.34,0,0,1-1.4-1.36c-.11-.37-.31-.83.09-1s3,1.87,3,2.19C290.88,264.92,289.85,264.64,289.29,264.38Z"/></svg>