<svg id="OBJECTS" xmlns="http://www.w3.org/2000/svg" xmlns:xlink="http://www.w3.org/1999/xlink" viewBox="0 0 500 697"><defs><style>.cls-1{fill:none;}.cls-2{clip-path:url(#clip-path);}.cls-3{fill:#d9d9dd;}.cls-4{fill:#d7a58a;}.cls-5{fill:#f0d5ba;}.cls-6{fill:#6cbcff;}.cls-7{fill:#efefef;}.cls-8{fill:#332b26;}</style><clipPath id="clip-path"><rect class="cls-1" x="0.2" y="0.02" width="500.05" height="696.92" rx="21.2"/></clipPath></defs><title>befund</title><g class="cls-2"><path class="cls-3" d="M359.77,470.31s74.12,8.1,85.12,21.33c9.58,11.51,29.5,181.79,34.11,206H310.7V470.52Z"/><path class="cls-3" d="M263.26,471.41s-75.74,7-86.74,20.23c-9.59,11.51-29.5,181.79-34.11,206H310.7V470.52Z"/><rect class="cls-4" x="271.53" y="430.19" width="76.09" height="67.2"/><path class="cls-5" d="M434.19,288.54a20.52,20.52,0,0,0-4.69-.15C427,188.84,374.26,154.06,309.58,154.06S192.16,187.91,189.66,288.39a20.5,20.5,0,0,0-4.69.15c-13.5,2-22.4,17.18-19.88,33.8s15.51,28.43,29,26.38c.37-.06.71-.16,1.06-.23C210.58,412.92,256,437.8,309.58,437.8s99-24.88,114.41-89.31c.36.07.7.17,1.06.23,13.5,2,26.49-9.76,29-26.38S447.69,290.59,434.19,288.54Z"/><path class="cls-6" d="M309.63,468.89c-68.57,0-124.15,10.57-124.15,23.61L210.6,643l-17,89.75H423.8L408.65,640,433.77,492.5C433.77,479.46,378.19,468.89,309.63,468.89Z"/><path class="cls-7" d="M297.44,602.81l-26-133.46c-58.73,2.49-95.67,12-95.67,23.15l34.79,152s-26,56-31.48,124.64c-3.31,41.48-3.31,72.27-3.31,72.27H297.44Z"/><path class="cls-7" d="M347.35,469.35,320.91,602.81V841.42H442.55s0-28.43-3.51-73.83c-5.26-68.21-30.48-123.08-30.48-123.08l34-152C442.55,481.37,406.08,471.84,347.35,469.35Z"/><path class="cls-8" d="M235.67,142.28h0c-31.8,19.4-57.17,46.42-60.31,65.62-5.45,33.24,9.6,80.64,9.6,80.64l4.69-.15S183,388.84,210.78,437.8c0,0-13.62-88-2.18-135.5,0,0,18.84-61.16,50.68-87.86,0,0,123.69-4.1,149.85,87.86,0,0,8.72,64.06,0,135.5,0,0,20.37-38.4,20.37-149.41l8.37,1.11s29.56-70.7,10.49-102.85c-13.17-22.2-47.24-46.48-85.79-59.38h0S381.34,106,336.11,90.21c-39.55-13.82-64.37-13.69-84.16-3.4C214.33,106.37,221.79,132.09,235.67,142.28Z"/><circle class="cls-3" cx="304.04" cy="201.32" r="66.37"/><circle class="cls-6" cx="304.04" cy="201.32" r="42.43"/><circle class="cls-7" cx="304.04" cy="201.32" r="35.85"/></g></svg>