<svg id="OBJECTS" xmlns="http://www.w3.org/2000/svg" viewBox="0 0 500 697"><defs><style>.cls-1{fill:#d7a58a;}.cls-2{fill:#f0d5ba;}.cls-3{fill:#6cbaff;}.cls-4{fill:#fff;}.cls-5{fill:#696969;}</style></defs><title>befund</title><rect class="cls-1" x="183.82" y="457.66" width="93.83" height="102.88"/><path class="cls-2" d="M230.73,163.26c45.56,0,117.6,25.9,117.6,147.26,0,70.07-22.84,116-32.79,128.67-9.16,11.68-60.65,36.58-84.81,36.58Z"/><path class="cls-2" d="M360.41,338.76c1.78-19.36-7.08-36.61-19.78-38.54s-24.46,12.23-26.24,31.59,7.07,36.61,19.79,38.53S358.63,358.12,360.41,338.76Z"/><path class="cls-2" d="M230.73,163.26c-45.55,0-117.6,25.9-117.6,147.26,0,70.07,22.84,116,32.8,128.67,9.16,11.68,60.64,36.58,84.8,36.58Z"/><path class="cls-2" d="M95.89,338.12c-2-19.53,5.83-36.7,17.61-38.35s23,12.85,25.08,32.39-5.82,36.7-17.61,38.35S98,357.65,95.89,338.12Z"/><path class="cls-3" d="M391.41,545.73C378.24,532,289,519,289,519l-58.29,4.85L172.43,519S83.22,532,70.05,545.73C58.57,557.68,34.73,672.13,29.2,697.25H432.25C426.74,672.13,402.89,557.68,391.41,545.73Z"/><polygon class="cls-4" points="230.73 523.82 183.1 504.66 171.36 516.58 195.06 569.14 230.73 523.82"/><polygon class="cls-4" points="230.73 523.82 278.36 504.66 290.1 516.58 266.39 569.14 230.73 523.82"/><path class="cls-5" d="M350.89,305.89s38.56-175.77-121-175.77c-160.36,0-120.11,170.93-120.11,170.93s21.92-12.55,21.92,43.55h4s7.77-37.62,10.13-71.34c56.39,0,105.27,2.78,147.2-31.93,23.82,0,28.06,19.66,28.06,42.35l-10.43,4s10.1,19.77,10.82,56.88h7.23S327.69,282.71,350.89,305.89Z"/><path class="cls-4" d="M230.74,414.32c-21.24,0-38.45,7-38.45,15.67h76.89C269.18,421.34,252,414.32,230.74,414.32Z"/></svg>