<svg id="OBJECTS" xmlns="http://www.w3.org/2000/svg" viewBox="0 0 500 697"><defs><style>.cls-1{fill:#d9d9dd;}.cls-2,.cls-5{fill:#8c51ed;}.cls-3{fill:#ece8ed;}.cls-4{fill:#696969;}.cls-5{font-size:70.25px;font-family:OpenSans-Bold, Open Sans;font-weight:700;}</style></defs><title>befund</title><path class="cls-1" d="M346.82,68H454.74a18.33,18.33,0,0,1,18.2,20.5L451.27,269.89A18.32,18.32,0,0,1,433.07,286H391.66l-43.66,53a5.74,5.74,0,0,1-10.08-2.64L328.87,286H153.12a18.32,18.32,0,0,1-18.2-16.15L113.25,88.45A18.33,18.33,0,0,1,131.45,68H346.82Z"/><path class="cls-2" d="M422.31,258.72,441.76,98.35h-299l19.46,160.37Z"/><path class="cls-3" d="M310.52,212.81l-5.85-19.19H275.28l-5.84,19.19H251l28.45-80.95h20.9l28.57,80.95Zm-9.93-33.53q-8.1-26.09-9.12-29.5t-1.46-5.4q-1.83,7.05-10.43,34.9Z"/><path class="cls-4" d="M173.94,577.86l-14.8,45.59a4.94,4.94,0,0,1-8.67-2.27L120,577.86"/><path class="cls-4" d="M151.31,581.46H76.15A15.76,15.76,0,0,1,60.5,567.57l-18.63-156a15.76,15.76,0,0,1,15.65-17.63h278a15.76,15.76,0,0,1,15.65,17.63l-18.63,156a15.76,15.76,0,0,1-15.65,13.89H151.31Z"/><path class="cls-1" d="M301,549.47l15.31-126.24H80.93L96.25,549.47Z"/><text class="cls-5" transform="translate(168.74 516.15)">Ñ</text></svg>