<svg id="OBJECTS" xmlns="http://www.w3.org/2000/svg" viewBox="0 0 500 697"><defs><style>.cls-1{fill:#696969;}.cls-2{fill:#fff;}.cls-3{fill:#d9d9dd;}.cls-4{fill:#12c108;}.cls-5{fill:#6cbcff;}</style></defs><title>icons-server</title><rect id="D-rack" class="cls-1" x="67.88" y="573.17" width="363.16" height="123.83" rx="24.56"/><rect id="D-rect" class="cls-2" x="94.83" y="597.67" width="310.42" height="74.82"/><rect id="D-rect-2" data-name="D-rect" class="cls-3" x="154.11" y="611.03" width="236.85" height="48.42"/><circle id="C-btn-kelly" class="cls-4" cx="116.07" cy="651.86" r="7.59"/><circle id="D-btn-sky" class="cls-5" cx="116.07" cy="618.62" r="7.59"/><rect id="C-rack" class="cls-1" x="68.07" y="449.32" width="363.16" height="123.83" rx="24.56"/><rect id="C-rect" class="cls-2" x="94.83" y="473.99" width="310.42" height="74.82"/><rect id="C-rect-2" data-name="C-rect" class="cls-3" x="154.11" y="487.35" width="236.85" height="48.42"/><circle id="C-btn-sky" class="cls-5" cx="116.07" cy="528.18" r="7.59"/><circle id="C-btn-kelly-2" data-name="C-btn-kelly" class="cls-4" cx="116.07" cy="494.94" r="7.59"/><rect id="B-rack" class="cls-1" x="67.88" y="325.47" width="363.16" height="123.83" rx="24.56"/><rect id="B-rect" class="cls-2" x="94.83" y="349.97" width="310.42" height="74.82"/><rect id="B-rect-2" data-name="B-rect" class="cls-3" x="154.11" y="363.33" width="236.85" height="48.42"/><circle id="B-btn-kelly" class="cls-4" cx="116.07" cy="404.16" r="7.59"/><circle id="B-btn-sky" class="cls-5" cx="116.07" cy="370.91" r="7.59"/><rect id="A-rack" class="cls-1" x="67.88" y="201.62" width="363.16" height="123.83" rx="24.56"/><rect id="A-rect" class="cls-2" x="94.83" y="226.13" width="310.42" height="74.82"/><rect id="A-rect-2" data-name="A-rect" class="cls-3" x="154.11" y="239.49" width="236.85" height="48.42"/><circle id="A-btn-kelly" class="cls-4" cx="116.07" cy="280.32" r="7.59"/><circle id="A-btn-sky" class="cls-5" cx="116.07" cy="247.08" r="7.59"/></svg>